{"title":"Kelly Clarkson - Stronger {M4A+MP4} (1080p) x264 [VX] [P2PDL]","uid":7794191,"size":49079973,"categoryP":"video","categoryS":"music_videos","magnet":"?xt=urn:btih:2dfed272b589f4b4fa2693373bae75d9c194336d&amp;dn=Kelly+Clarkson+-+Stronger+%7BM4A%2BMP4%7D+%281080p%29+x264+%5BVX%5D+%5BP2PDL%5D&amp;tr=udp%3A%2F%2Ftracker.openbittorrent.com%3A80&amp;tr=udp%3A%2F%2Fopen.demonii.com%3A1337&amp;tr=udp%3A%2F%2Ftracker.coppersurfer.tk%3A6969&amp;tr=udp%3A%2F%2Fexodus.desync.com%3A6969","seeders":0,"leechers":2,"uploader":"Vitamin_X","files":-1,"time":1352099650,"description":"Cover:  &lt;a href=&quot;\nhttp://www.shotpix.com/images/10215792716173239219.png&quot; rel=&quot;nofollow&quot; target=&quot;_NEW&quot;&gt;\nhttp://www.shotpix.com/images/10215792716173239219.png&lt;/a&gt;\n\nRelease Title: Kelly Clarkson - Stronger (What Doesn't Kill You) (2011)\n\nMusic video by Kelly Clarkson performing Stronger (What Doesn't Kill You). (C) 2011 RCA Records, a division of Sony Music Entertainment.\n\n                                 1080p Full HD MP4 Video\n                                           +\n                                 128 Kbps/VBR M4A Audio\n\nSing Along!\nSoftcoded English subtitles included (Lyrics on screen). Can be disabled according to your liking.\n\n\nGeneral\nComplete name                  : Kelly Clarkson - Stronger (What Doesn't Kill You) (1080p) x264 [VX] [P2PDL].mp4\nFormat                         : MPEG-4\nFormat profile                 : Base Media / Version 2\nCodec ID                       : mp42\nFile size                      : 41.8 MiB\nDuration                       : 3mn 40s\n\nVideo\nID                             : 1\nFormat                         : AVC\nFormat/Info                    : Advanced Video Codec\nDuration                       : 3mn 40s\nBit rate mode                  : Variable\nBit rate                       : 1 450 Kbps\nWidth                          : 1 920 pixels\nHeight                         : 1 080 pixels\nDisplay aspect ratio           : 16:9\nFrame rate mode                : Variable\nFrame rate                     : 23.976 fps\nScan type                      : Progressive\nStream size                    : 38.3 MiB (92%)\nWriting library                : x264 core 128\n\nAudio\nID                             : 2\nFormat                         : AAC\nFormat/Info                    : Advanced Audio Codec\nFormat profile                 : LC\nCodec ID                       : 40\nDuration                       : 3mn 40s\nBit rate mode                  : Variable\nBit rate                       : 128 Kbps\nChannel(s)                     : 2 channels\nChannel positions              : Front: L R\nSampling rate                  : 48.0 KHz\nCompression mode               : Lossy\nStream size                    : 3.36 MiB (8%)\n\n\nSubtitles                      : Yes (English)\n\nScreens:\n &lt;a href=&quot;\nhttp://www.shotpix.com/images/44923638546418247051.jpg&quot; rel=&quot;nofollow&quot; target=&quot;_NEW&quot;&gt;\nhttp://www.shotpix.com/images/44923638546418247051.jpg&lt;/a&gt; &lt;a href=&quot;\nhttp://www.shotpix.com/images/42224098413039223873.jpg&quot; rel=&quot;nofollow&quot; target=&quot;_NEW&quot;&gt;\nhttp://www.shotpix.com/images/42224098413039223873.jpg&lt;/a&gt;\n\nThumbs:\n &lt;a href=&quot;\nhttp://www.shotpix.com/images/44835661222864410495.jpg&quot; rel=&quot;nofollow&quot; target=&quot;_NEW&quot;&gt;\nhttp://www.shotpix.com/images/44835661222864410495.jpg&lt;/a&gt;\n------------------------------------------------------------------------\n\n\nNotes:\n\n* Recommended to use latest version VLC Media Player.\n* Install shark007 codecs in case of any kind of problem in playback (For non-VLC Media Player users).\n* Alternatively, install Core AVC codecs, the fastest decoder that there is coupled with Community Center Codec Pack and play on Windows Media Player Classic.\n* Read NFO\n* Help in seeding as much as you can. \n\n\nGreets to: VYTO, k1ng_rulz, staff members at ExtraTorrent, TPB,KAT, 1337x, PublicHD, Ahashare,\nSilverTorrent, TorrentMafia, Digtorrent, BTScene, P2PDL, and all others\n\n\nEncoder Notes: Looking For Early Access To Anything You Can Provide DVDScr, R5, DVDRips, BluRay, Direct Audio, Early Music\nReleases, Seedboxes, Links, Dedicated Servers anything u can provide, Advance / Promo CDs/DVDs. If You Got anything to\noffer contact me at &quot;&lt;a class=&quot;__cf_email__&quot; href=&quot;/cdn-cgi/l/email-protection&quot; data-cfemail=&quot;a7d7d5c0e7cfd2d4cf89c4c8ca&quot;&gt;[email&amp;#160;protected]&lt;/a&gt;&lt;script cf-hash='f9e31' type=&quot;text/javascript&quot;&gt;\n/* &lt;![CDATA[ */!function(){try{var t=&quot;currentScript&quot;in document?document.currentScript:function(){for(var t=document.getElementsByTagName(&quot;script&quot;),e=t.length;e--;)if(t[e].getAttribute(&quot;cf-hash&quot;))return t[e]}();if(t&amp;&amp;t.previousSibling){var e,r,n,i,c=t.previousSibling,a=c.getAttribute(&quot;data-cfemail&quot;);if(a){for(e=&quot;&quot;,r=parseInt(a.substr(0,2),16),n=2;a.length-n;n+=2)i=parseInt(a.substr(n,2),16)^r,e+=String.fromCharCode(i);e=document.createTextNode(e),c.parentNode.replaceChild(e,c)}}}catch(u){}}();/* ]]&gt; */&lt;/script&gt;&quot;\n\n\nFacebook Fan Page: www . facebook . com / p2pdl\n\n                                 Enjoy!","torrent":{"xt":"urn:btih:2dfed272b589f4b4fa2693373bae75d9c194336d","amp;dn":"Kelly+Clarkson+-+Stronger+%7BM4A%2BMP4%7D+%281080p%29+x264+%5BVX%5D+%5BP2PDL%5D","amp;tr":["udp%3A%2F%2Ftracker.openbittorrent.com%3A80","udp%3A%2F%2Fopen.demonii.com%3A1337","udp%3A%2F%2Ftracker.coppersurfer.tk%3A6969","udp%3A%2F%2Fexodus.desync.com%3A6969"],"infoHash":"2dfed272b589f4b4fa2693373bae75d9c194336d","infoHashBuffer":{"type":"Buffer","data":[45,254,210,114,181,137,244,180,250,38,147,55,59,174,117,217,193,148,51,109]},"announce":[],"urlList":[]}}